<svg xmlns="http://www.w3.org/2000/svg" width="363.712" height="102.586" viewBox="0 0 363.712 102.586"><g transform="translate(-1200 17483)"><path d="M177.732,93.825H66.324A60.993,60.993,0,0,0,79.4,68.956H202.6A24.869,24.869,0,0,1,177.732,93.825Zm0-27.978H80.12a62.778,62.778,0,0,0,0-24.869H202.6A24.869,24.869,0,0,1,177.732,65.847Zm0-27.978H79.4A60.982,60.982,0,0,0,66.324,13H202.6A24.869,24.869,0,0,1,177.732,37.869Z" transform="translate(1361.111 -17485.119)" fill="#fff" opacity="0.151"/><path d="M137.831,93.825H24.869A24.869,24.869,0,0,1,0,68.956H124.752a60.981,60.981,0,0,0,13.077,24.869h0Zm-13.8-27.978H24.869A24.869,24.869,0,0,1,0,40.978H124.035a62.777,62.777,0,0,0,0,24.869Zm.715-27.978H24.869A24.869,24.869,0,0,1,0,13H137.831a60.984,60.984,0,0,0-13.08,24.869Z" transform="translate(1200 -17485.119)" fill="#fff" opacity="0.151"/><path d="M49.738,102.586a48.138,48.138,0,0,1-19.361-4.03A49.518,49.518,0,0,1,14.569,87.561a51.24,51.24,0,0,1-10.66-16.3,52.945,52.945,0,0,1,0-39.931,51.24,51.24,0,0,1,10.66-16.3A49.518,49.518,0,0,1,30.378,4.03a48.511,48.511,0,0,1,38.72,0A49.518,49.518,0,0,1,84.908,15.023a51.241,51.241,0,0,1,10.66,16.3,52.945,52.945,0,0,1,0,39.931,51.24,51.24,0,0,1-10.66,16.3A49.518,49.518,0,0,1,69.1,98.554a48.134,48.134,0,0,1-19.361,4.032Zm0-79.271a27.891,27.891,0,1,0,10.89,2.2A27.891,27.891,0,0,0,49.738,23.315Z" transform="translate(1332.118 -17483)" fill="#fff" opacity="0.151"/></g></svg>