<svg xmlns="http://www.w3.org/2000/svg" width="251" height="84" viewBox="0 0 251 84">
  <g id="Component_1_1" data-name="Component 1 – 1" transform="translate(2)">
    <g id="Group_352" data-name="Group 352" transform="translate(-1147 17409)">
      <path id="Subtraction_53" data-name="Subtraction 53" d="M46.846,33H0V22.847H57A10.165,10.165,0,0,1,46.846,33Zm0-11.424H0V11.423H57A10.165,10.165,0,0,1,46.846,21.577Zm0-11.423H0V0H57A10.165,10.165,0,0,1,46.846,10.154Z" transform="translate(1289 -17405)" fill="#464646"/>
      <path id="Subtraction_54" data-name="Subtraction 54" d="M57,33H10.154A10.165,10.165,0,0,1,0,22.847H57V33Zm0-11.424H10.154A10.165,10.165,0,0,1,0,11.423H57V21.576Zm0-11.423H10.154A10.165,10.165,0,0,1,0,0H57V10.153Z" transform="translate(1195 -17405)" fill="#464646"/>
      <path id="Subtraction_55" data-name="Subtraction 55" d="M20,41a19.458,19.458,0,0,1-7.785-1.611A19.914,19.914,0,0,1,5.858,35,20.468,20.468,0,0,1,1.572,28.48a21.042,21.042,0,0,1,0-15.959A20.468,20.468,0,0,1,5.858,6a19.914,19.914,0,0,1,6.357-4.393,19.615,19.615,0,0,1,15.57,0A19.914,19.914,0,0,1,34.142,6a20.468,20.468,0,0,1,4.286,6.516,21.042,21.042,0,0,1,0,15.959A20.468,20.468,0,0,1,34.142,35a19.914,19.914,0,0,1-6.357,4.393A19.456,19.456,0,0,1,20,41ZM20,7.454A13.129,13.129,0,0,0,7.906,15.422a12.983,12.983,0,0,0,2.813,14.3,13.155,13.155,0,0,0,21.374-4.147,12.983,12.983,0,0,0-2.813-14.3A13.124,13.124,0,0,0,20,7.454Z" transform="translate(1250 -17409)" fill="#464646"/>
    </g>
    <g id="Group_356" data-name="Group 356" transform="translate(0 51)">
      <g id="Group_1" data-name="Group 1" transform="translate(28.559 1.956)">
        <path id="Path_2" data-name="Path 2" d="M566.969,318.27c-1.119,0-2.8.055-5.038.173s-3.91.182-5.028.182h-.491a.318.318,0,0,1-.282-.282c-.009-.146-.018-.3-.036-.446-.009-.737-.018-1.9-.018-3.492l.018-4.937q.287-7.038.509-10.557l.018-.236c.009-.236-.073-.355-.264-.355-.409,0-1.018.018-1.828.064s-1.418.064-1.837.064c-.355,0-.909-.018-1.646-.055s-1.3-.055-1.673-.055-.564.136-.564.409q0,2.169.127,6.492t.136,6.492c0,1.355-.027,3.392-.064,6.1s-.073,4.737-.073,6.092c0,.327.182.518.546.582,1.046.064,1.846.091,2.41.073l5.583.073c.555.018,1.946.045,4.192.1,1.719.045,3.11.073,4.183.073a3.7,3.7,0,0,0,.764-.036c.2-.064.327-.255.391-.582a28.465,28.465,0,0,0,.464-5.51C567.469,318.415,567.3,318.27,566.969,318.27Z" transform="translate(-510.329 -297.611)" fill="#4e5050" stroke="#4e5050" stroke-width="1"/>
        <path id="Path_3" data-name="Path 3" d="M596.171,323.644c-.236-3.2-.355-5.61-.355-7.211,0-.6.036-1.5.109-2.71s.1-2.109.1-2.71c0-.409-.155-.618-.464-.618q-.6,0-1.8.082c-.791.064-1.391.091-1.791.091-.373,0-.928-.036-1.655-.109s-1.273-.1-1.636-.1a.748.748,0,0,0-.291.036c-.164.055-.245.191-.245.427a26.361,26.361,0,0,0,.245,3.146c.182,1.673.291,2.719.336,3.137a11.656,11.656,0,0,1-4.264.946,5.922,5.922,0,0,1-4.647-1.828,6.941,6.941,0,0,1-1.591-4.819,7.476,7.476,0,0,1,1.528-4.8,5.377,5.377,0,0,1,4.446-2.091,6.571,6.571,0,0,1,3.146.764,8.037,8.037,0,0,1,1.864,1.418,3.993,3.993,0,0,0,.855.773c.327,0,1.046-.7,2.164-2.091s1.673-2.282,1.673-2.673a1.455,1.455,0,0,0-.318-.636,10.156,10.156,0,0,0-4.265-3.364,13.336,13.336,0,0,0-5.337-1.082,12.237,12.237,0,0,0-9.511,4.037,14.044,14.044,0,0,0-3.546,9.82,13.246,13.246,0,0,0,3.655,9.584,12.588,12.588,0,0,0,9.475,3.846,20.532,20.532,0,0,0,7.492-1.528c.264.1.955.282,2.082.564a13.939,13.939,0,0,0,2.046.409c.373,0,.546-.173.518-.509Z" transform="translate(-506.626 -297.547)" fill="#4e5050" stroke="#4e5050" stroke-width="1"/>
        <path id="Path_4" data-name="Path 4" d="M623.717,301.586a13.352,13.352,0,0,0-19.15,0,14.592,14.592,0,0,0,0,19.5,13.458,13.458,0,0,0,19.186.036,14.64,14.64,0,0,0-.036-19.541Zm-5.083,14.421a5.757,5.757,0,0,1-4.483,2.119,5.834,5.834,0,0,1-4.583-2,7.429,7.429,0,0,1,.118-9.493,5.889,5.889,0,0,1,9-.073,7,7,0,0,1,1.7,4.765A6.9,6.9,0,0,1,618.634,316.008Z" transform="translate(-502.007 -297.54)" fill="#4e5050" stroke="#4e5050" stroke-width="1"/>
        <path id="Path_5" data-name="Path 5" d="M650.714,317.912a13.136,13.136,0,0,0-1.737.182c-.918.145-1.518.218-1.791.227-1.364.1-3.3.146-5.829.146-.218,0-.318-.046-.318-.146a77.649,77.649,0,0,1,4.292-6.947q3.778-5.81,4.956-7.511a1.693,1.693,0,0,0,.337-.846,21.114,21.114,0,0,0-.337-4.274.5.5,0,0,0-.509-.427q-2.578,0-7.738-.118t-7.747-.109c-.336,0-.5.1-.5.3a15.921,15.921,0,0,1-.427,2.892,17.309,17.309,0,0,0-.418,2.691c0,.291.136.427.409.427.891,0,2.21-.018,3.974-.073s3.083-.073,3.955-.073c.318,0,.482.1.482.3q0,.546-4.574,7.683t-4.583,7.238c0,.082.082.418.227,1.027a34.985,34.985,0,0,1,.373,3.555c.064.282.318.427.764.427,1.046,0,2.61.009,4.692.036s3.646.036,4.692.036c.727,0,1.837.036,3.3.118s2.573.109,3.31.109a.431.431,0,0,0,.464-.409,34.22,34.22,0,0,0,.546-6.074C650.978,318.04,650.887,317.912,650.714,317.912Z" transform="translate(-499.469 -297.59)" fill="#4e5050" stroke="#4e5050" stroke-width="1"/>
        <path id="Path_6" data-name="Path 6" d="M623.717,301.586a13.352,13.352,0,0,0-19.15,0,14.592,14.592,0,0,0,0,19.5,13.458,13.458,0,0,0,19.186.036,14.64,14.64,0,0,0-.036-19.541Zm-5.083,14.421a5.757,5.757,0,0,1-4.483,2.119,5.834,5.834,0,0,1-4.583-2,7.429,7.429,0,0,1,.118-9.493,5.889,5.889,0,0,1,9-.073,7,7,0,0,1,1.7,4.765A6.9,6.9,0,0,1,618.634,316.008Z" transform="translate(-600.83 -297.54)" fill="#4e5050" stroke="#4e5050" stroke-width="1"/>
      </g>
      <text id="P" transform="translate(0 26)" fill="#4e5050" stroke="#4e5050" stroke-width="2" font-size="29" font-family="HiraKakuStdN-W8, Hiragino Kaku Gothic StdN"><tspan x="0" y="0">P</tspan></text>
      <text id="A" transform="translate(190 28)" fill="#4e5050" stroke="#4e5050" stroke-width="2" font-size="29" font-family="HiraKakuStdN-W8, Hiragino Kaku Gothic StdN"><tspan x="0" y="0">A</tspan></text>
      <text id="R" transform="translate(223 27)" fill="#4e5050" stroke="#4e5050" stroke-width="2" font-size="28" font-family="HiraKakuStdN-W8, Hiragino Kaku Gothic StdN"><tspan x="0" y="0">R</tspan></text>
    </g>
  </g>
</svg>
