<svg id="Component_1_1" data-name="Component 1 – 1" xmlns="http://www.w3.org/2000/svg" width="247" height="82" viewBox="0 0 247 82">
  <g id="Group_352" data-name="Group 352" transform="translate(-1147 17409)">
    <path id="Subtraction_53" data-name="Subtraction 53" d="M46.846,33H0V22.847H57A10.165,10.165,0,0,1,46.846,33Zm0-11.424H0V11.423H57A10.165,10.165,0,0,1,46.846,21.577Zm0-11.423H0V0H57A10.165,10.165,0,0,1,46.846,10.154Z" transform="translate(1289 -17405)" fill="#fff"/>
    <path id="Subtraction_54" data-name="Subtraction 54" d="M57,33H10.154A10.165,10.165,0,0,1,0,22.847H57V33Zm0-11.424H10.154A10.165,10.165,0,0,1,0,11.423H57V21.576Zm0-11.423H10.154A10.165,10.165,0,0,1,0,0H57V10.153Z" transform="translate(1195 -17405)" fill="#fff"/>
    <path id="Subtraction_55" data-name="Subtraction 55" d="M20,41a19.458,19.458,0,0,1-7.785-1.611A19.914,19.914,0,0,1,5.858,35,20.468,20.468,0,0,1,1.572,28.48a21.042,21.042,0,0,1,0-15.959A20.468,20.468,0,0,1,5.858,6a19.914,19.914,0,0,1,6.357-4.393,19.615,19.615,0,0,1,15.57,0A19.914,19.914,0,0,1,34.142,6a20.468,20.468,0,0,1,4.286,6.516,21.042,21.042,0,0,1,0,15.959A20.468,20.468,0,0,1,34.142,35a19.914,19.914,0,0,1-6.357,4.393A19.456,19.456,0,0,1,20,41ZM20,7.454A13.129,13.129,0,0,0,7.906,15.422a12.983,12.983,0,0,0,2.813,14.3,13.155,13.155,0,0,0,21.374-4.147,12.983,12.983,0,0,0-2.813-14.3A13.124,13.124,0,0,0,20,7.454Z" transform="translate(1250 -17409)" fill="#fff"/>
  </g>
  <g id="Group_356" data-name="Group 356" transform="translate(0 51)">
    <text transform="translate(0 30)" fill="#fff" font-size="35" font-weight="bold" font-family="Montserrat,sans-serif"><tspan x="20" y="0">POLGOZAR</tspan></text>
  </g>
</svg>
