<svg xmlns="http://www.w3.org/2000/svg" width="21.988" height="28.092" viewBox="0 0 21.988 28.092">
  <g id="single-neutral-actions-location" transform="translate(-14 -11.084)">
    <path id="Path_15" data-name="Path 15" d="M21.4,22.879a4.4,4.4,0,1,1,4.4-4.4A4.4,4.4,0,0,1,21.4,22.879Zm0-6.6a2.2,2.2,0,1,0,2.2,2.2A2.2,2.2,0,0,0,21.4,16.283Z" transform="translate(3.596 3.596)" fill="#91c8de"/>
    <path id="Path_16" data-name="Path 16" d="M24.994,39.176a2.19,2.19,0,0,1-1.506-.6c-.026-.024-.062-.059-.1-.095C20.568,35.46,14,27.815,14,22.078a10.994,10.994,0,1,1,21.988,0c0,5.737-6.568,13.382-9.391,16.4a2.188,2.188,0,0,1-1.537.695Zm0-25.893a8.8,8.8,0,0,0-8.8,8.8c0,5.092,6.733,12.694,8.8,14.9,2.06-2.21,8.793-9.809,8.793-14.9A8.805,8.805,0,0,0,24.994,13.283Z" transform="translate(0 0)" fill="#91c8de"/>
  </g>
</svg>
