<svg xmlns="http://www.w3.org/2000/svg" width="19.888" height="23.391" viewBox="0 0 19.888 23.391">
  <g id="style-three-pin-user" transform="translate(-7.112 -4.002)">
    <path id="Path_12" data-name="Path 12" d="M8.13,20.158a1.033,1.033,0,0,1-.224-.024,1.02,1.02,0,0,1-.769-1.219,10.171,10.171,0,0,1,19.837,0,1.018,1.018,0,0,1-.767,1.217,1.061,1.061,0,0,1-.224.024h0a1.013,1.013,0,0,1-.993-.791,8.137,8.137,0,0,0-15.87,0A1.01,1.01,0,0,1,8.13,20.158Z" transform="translate(0 7.235)" fill="#91c8de"/>
    <path id="Path_13" data-name="Path 13" d="M15.62,18.243a7.12,7.12,0,1,1,7.12-7.12A7.128,7.128,0,0,1,15.62,18.243Zm0-12.206a5.086,5.086,0,1,0,5.086,5.086A5.09,5.09,0,0,0,15.62,6.036Z" transform="translate(1.436 0)" fill="#91c8de"/>
  </g>
</svg>
